<?xml version="1.0" standalone="no"?>
<!DOCTYPE svg PUBLIC "-//W3C//DTD SVG 20010904//EN"
 "http://www.w3.org/TR/2001/REC-SVG-20010904/DTD/svg10.dtd">
<svg version="1.0" xmlns="http://www.w3.org/2000/svg"
 width="256.000000pt" height="256.000000pt" viewBox="0 0 256.000000 256.000000"
 preserveAspectRatio="xMidYMid meet">

<g transform="translate(0.000000,256.000000) scale(0.100000,-0.100000)"
fill="#000000" stroke="none">
<path d="M1 2153 c0 -305 3 -400 11 -378 27 73 99 151 159 170 10 4 19 15 19
26 0 27 18 60 44 81 18 15 43 18 158 18 132 0 138 -1 167 -25 16 -14 31 -36
33 -48 3 -21 8 -22 87 -22 l84 0 71 123 c40 70 84 133 101 145 29 22 38 22
427 25 501 4 456 17 559 -167 l74 -131 86 0 c47 0 106 -6 130 -14 159 -48 282
-165 330 -314 18 -57 18 -57 18 431 l1 487 -1280 0 -1280 0 1 -407z"/>
<path d="M323 1890 c-88 -53 -94 -172 -11 -231 93 -67 222 2 220 117 -1 105
-119 169 -209 114z"/>
<path d="M1230 1854 c-36 -7 -108 -35 -160 -60 -229 -114 -379 -355 -380 -612
-1 -304 208 -579 505 -664 91 -26 257 -31 335 -9 265 71 450 256 521 521 22
78 17 244 -9 335 -101 351 -457 566 -812 489z m265 -209 c187 -49 325 -200
356 -393 51 -312 -231 -594 -543 -543 -274 45 -453 303 -397 573 55 263 324
430 584 363z"/>
<path d="M1 293 l-1 -293 1280 0 1280 0 -1 293 0 292 -18 -57 c-52 -162 -184
-283 -352 -323 -96 -22 -1722 -22 -1818 0 -168 40 -300 161 -352 323 l-18 57
0 -292z"/>
</g>
</svg>
